<mxfile host="app.diagrams.net" modified="2020-11-21T06:10:39.171Z" agent="5.0 (Windows NT 10.0; Win64; x64) AppleWebKit/537.36 (KHTML, like Gecko) Chrome/86.0.4240.198 Safari/537.36" etag="rDO6DH66fIH5p0XvYZsb" version="13.10.0" type="github">
  <diagram id="CJoIMUIqcPQ6l7s9pJj1" name="Page-1">
    <mxGraphModel dx="1422" dy="762" grid="1" gridSize="10" guides="1" tooltips="1" connect="1" arrows="1" fold="1" page="1" pageScale="1" pageWidth="827" pageHeight="1169" math="0" shadow="0">
      <root>
        <mxCell id="0" />
        <mxCell id="1" parent="0" />
        <mxCell id="Qiq9FVPnAwVoKg9HhzMm-1" value="&lt;font style=&quot;font-size: 18px&quot;&gt;策略模式&lt;/font&gt;" style="text;html=1;strokeColor=none;fillColor=none;align=center;verticalAlign=middle;whiteSpace=wrap;rounded=0;" vertex="1" parent="1">
          <mxGeometry x="120" y="50" width="180" height="20" as="geometry" />
        </mxCell>
        <mxCell id="Qiq9FVPnAwVoKg9HhzMm-7" style="edgeStyle=orthogonalEdgeStyle;orthogonalLoop=1;jettySize=auto;html=1;entryX=0.5;entryY=0;entryDx=0;entryDy=0;rounded=1;" edge="1" parent="1" source="Qiq9FVPnAwVoKg9HhzMm-2" target="Qiq9FVPnAwVoKg9HhzMm-3">
          <mxGeometry relative="1" as="geometry" />
        </mxCell>
        <mxCell id="Qiq9FVPnAwVoKg9HhzMm-8" style="edgeStyle=orthogonalEdgeStyle;rounded=1;orthogonalLoop=1;jettySize=auto;html=1;exitX=0.5;exitY=1;exitDx=0;exitDy=0;entryX=0.45;entryY=0.033;entryDx=0;entryDy=0;entryPerimeter=0;" edge="1" parent="1" source="Qiq9FVPnAwVoKg9HhzMm-2" target="Qiq9FVPnAwVoKg9HhzMm-5">
          <mxGeometry relative="1" as="geometry" />
        </mxCell>
        <mxCell id="Qiq9FVPnAwVoKg9HhzMm-9" style="edgeStyle=orthogonalEdgeStyle;rounded=1;orthogonalLoop=1;jettySize=auto;html=1;exitX=1;exitY=0.5;exitDx=0;exitDy=0;" edge="1" parent="1" source="Qiq9FVPnAwVoKg9HhzMm-2" target="Qiq9FVPnAwVoKg9HhzMm-6">
          <mxGeometry relative="1" as="geometry" />
        </mxCell>
        <mxCell id="Qiq9FVPnAwVoKg9HhzMm-2" value="&lt;font style=&quot;font-size: 18px&quot;&gt;Strategy&lt;br&gt;&lt;br&gt;abstract doule computePrice&lt;br&gt;&lt;/font&gt;" style="rounded=0;whiteSpace=wrap;html=1;fillColor=#e1d5e7;strokeColor=#9673a6;" vertex="1" parent="1">
          <mxGeometry x="281" y="150" width="266" height="100" as="geometry" />
        </mxCell>
        <mxCell id="Qiq9FVPnAwVoKg9HhzMm-3" value="NormalActivity" style="rounded=0;whiteSpace=wrap;html=1;fillColor=#dae8fc;strokeColor=#6c8ebf;" vertex="1" parent="1">
          <mxGeometry x="110" y="340" width="120" height="60" as="geometry" />
        </mxCell>
        <mxCell id="Qiq9FVPnAwVoKg9HhzMm-5" value="VoucherActivity" style="rounded=0;whiteSpace=wrap;html=1;fillColor=#dae8fc;strokeColor=#6c8ebf;" vertex="1" parent="1">
          <mxGeometry x="360" y="340" width="120" height="60" as="geometry" />
        </mxCell>
        <mxCell id="Qiq9FVPnAwVoKg9HhzMm-6" value="DiscountActivity" style="rounded=0;whiteSpace=wrap;html=1;fillColor=#dae8fc;strokeColor=#6c8ebf;" vertex="1" parent="1">
          <mxGeometry x="610" y="340" width="120" height="60" as="geometry" />
        </mxCell>
        <mxCell id="Qiq9FVPnAwVoKg9HhzMm-10" value="&lt;font style=&quot;font-size: 16px&quot;&gt;PromotionContext&lt;br&gt;&lt;/font&gt;&lt;br&gt;executeStrategy(ProducOrder order){&lt;br&gt;strategy.computePrice(order)&lt;br&gt;}&amp;nbsp;" style="rounded=0;whiteSpace=wrap;html=1;fillColor=#dae8fc;strokeColor=#6c8ebf;" vertex="1" parent="1">
          <mxGeometry x="250" y="500" width="328" height="100" as="geometry" />
        </mxCell>
      </root>
    </mxGraphModel>
  </diagram>
</mxfile>
